<?xml version="1.0" standalone="no"?>
<!DOCTYPE svg PUBLIC "-//W3C//DTD SVG 20010904//EN"
 "http://www.w3.org/TR/2001/REC-SVG-20010904/DTD/svg10.dtd">
<svg version="1.0" xmlns="http://www.w3.org/2000/svg"
 width="260.000000pt" height="260.000000pt" viewBox="0 0 260.000000 260.000000"
 preserveAspectRatio="xMidYMid meet">
<metadata>
Created by potrace 1.11, written by Peter Selinger 2001-2013
</metadata>
<g transform="translate(0.000000,260.000000) scale(0.100000,-0.100000)"
fill="#000000" stroke="none">
<path d="M1580 2085 c-226 -50 -451 -178 -596 -337 -132 -147 -296 -393 -378
-570 -82 -177 -100 -240 -101 -359 0 -98 2 -110 30 -164 38 -74 90 -109 195
-131 208 -44 626 34 831 156 77 46 196 139 250 197 45 47 145 195 190 282 29
56 34 74 34 135 l0 71 -35 12 c-51 17 -226 16 -288 -2 -38 -12 -58 -25 -79
-53 -154 -207 -321 -392 -406 -451 -71 -48 -105 -51 -151 -10 -37 32 -38 34
-34 95 8 123 171 401 342 582 127 134 195 170 228 120 l15 -22 134 17 c74 9
174 27 224 39 109 28 119 40 111 141 -7 98 -28 135 -104 178 -133 77 -280 104
-412 74z"/>
</g>
</svg>
